ffmpeg started on 2026-04-09 at 15:34:58
Report written to "D:\Convert\FFMetrics\reports\psnr_report-6.txt"
Log level: 32
Command line:
ffmpeg -hide_banner -nostdin -r 24000/1001 -i "F:\\Convert\\files\\[DC] Make Heroine ga Oosugiru - 07_Telegram_HEVC(323).mkv" -r 24000/1001 -i "F:\\Convert\\files\\[DC] Make Heroine ga Oosugiru - 07_Telegram.mp4" -lavfi "[0:v]settb=AVTB,setpts=PTS-STARTPTS,format=pix_fmts=yuv420p10le,fps=24000/1001,scale=1920:1080:flags=lanczos:param0=3:out_range=limited:out_color_matrix=bt709:out_chroma_loc=left,setsar=1/1,setdar=(1920/1080)*(1/1),colorspace=format=yuv420p10:range=tv:primaries=bt709:trc=bt709:space=bt709:fast=0[main];[1:v]settb=AVTB,setpts=PTS-STARTPTS,format=pix_fmts=yuv420p,fps=24000/1001,scale=1920:1080:flags=lanczos:param0=3:out_range=limited:out_color_matrix=bt709:out_chroma_loc=left,setsar=1/1,setdar=(1920/1080)*(1/1),colorspace=format=yuv420p:range=tv:primaries=bt709:trc=bt709:space=bt709:fast=0[ref];[main][ref]psnr=eof_action=endall:stats_file='D\\:/Convert/FFMetrics/logs/psnr_logfile-6.txt'" -f null -
Input #0, matroska,webm, from 'F:\Convert\files\[DC] Make Heroine ga Oosugiru - 07_Telegram_HEVC(323).mkv':
  Metadata:
    COMPATIBLE_BRANDS: isomiso2avc1mp41
    MAJOR_BRAND     : isom
    MINOR_VERSION   : 512
    ENCODER         : Lavf61.7.100
  Duration: 00:24:06.79, start: -0.021000, bitrate: 938 kb/s
  Stream #0:0: Video: hevc (Main 10), yuv420p10le(tv, bt709, progressive), 1920x1080 [SAR 1:1 DAR 16:9], 23.98 fps, 23.98 tbr, 1k tbn (default)
      Metadata:
        HANDLER_NAME    : VideoHandler
        VENDOR_ID       : [0][0][0][0]
        ENCODER         : Lavc61.19.100 libx265
        BPS             : 741092
        DURATION        : 00:24:06.569708333
        NUMBER_OF_FRAMES: 34683
        NUMBER_OF_BYTES : 134005123
        _STATISTICS_WRITING_APP: mkvpropedit v94.0 ('Initiate') 64-bit
        _STATISTICS_WRITING_DATE_UTC: 2026-04-09 11:30:14
        _STATISTICS_TAGS: BPS DURATION NUMBER_OF_FRAMES NUMBER_OF_BYTES
  Stream #0:1: Audio: aac (LC), 48000 Hz, stereo, fltp (default)
      Metadata:
        HANDLER_NAME    : SoundHandler
        VENDOR_ID       : [0][0][0][0]
        ENCODER         : Lavc61.19.100 aac
        BPS             : 193194
        DURATION        : 00:24:06.784000000
        NUMBER_OF_FRAMES: 67819
        NUMBER_OF_BYTES : 34938755
        _STATISTICS_WRITING_APP: mkvpropedit v94.0 ('Initiate') 64-bit
        _STATISTICS_WRITING_DATE_UTC: 2026-04-09 11:30:14
        _STATISTICS_TAGS: BPS DURATION NUMBER_OF_FRAMES NUMBER_OF_BYTES
Input #1, mov,mp4,m4a,3gp,3g2,mj2, from 'F:\Convert\files\[DC] Make Heroine ga Oosugiru - 07_Telegram.mp4':
  Metadata:
    major_brand     : isom
    minor_version   : 512
    compatible_brands: isomiso2avc1mp41
    encoder         : Lavf60.16.100
  Duration: 00:24:06.74, start: 0.000000, bitrate: 3764 kb/s
  Stream #1:0[0x1](und): Video: h264 (High) (avc1 / 0x31637661), yuv420p(tv, bt709, progressive), 1920x1080 [SAR 1:1 DAR 16:9], 3616 kb/s, 23.98 fps, 23.98 tbr, 24k tbn (default)
      Metadata:
        handler_name    : VideoHandler
        vendor_id       : [0][0][0][0]
        encoder         : Lavc60.31.102 h264_qsv
  Stream #1:1[0x2](und): Audio: aac (HE-AACv2) (mp4a / 0x6134706D), 48000 Hz, stereo, fltp, 144 kb/s (default)
      Metadata:
        handler_name    : SoundHandler
        vendor_id       : [0][0][0][0]
Stream mapping:
  Stream #0:0 (hevc) -> settb:default
  Stream #1:0 (h264) -> settb:default
  psnr:default -> Stream #0:0 (wrapped_avframe)
  Stream #0:1 -> #0:1 (aac (native) -> pcm_s16le (native))
Output #0, null, to 'pipe:':
  Metadata:
    COMPATIBLE_BRANDS: isomiso2avc1mp41
    MAJOR_BRAND     : isom
    MINOR_VERSION   : 512
    encoder         : Lavf61.7.100
  Stream #0:0: Video: wrapped_avframe, yuv420p10le(tv, bt709, progressive), 1920x1080 [SAR 1:1 DAR 16:9], q=2-31, 200 kb/s, 23.98 fps, 23.98 tbn
      Metadata:
        encoder         : Lavc61.19.100 wrapped_avframe
  Stream #0:1: Audio: pcm_s16le, 48000 Hz, stereo, s16, 1536 kb/s (default)
      Metadata:
        HANDLER_NAME    : SoundHandler
        VENDOR_ID       : [0][0][0][0]
        _STATISTICS_TAGS: BPS DURATION NUMBER_OF_FRAMES NUMBER_OF_BYTES
        BPS             : 193194
        DURATION        : 00:24:06.784000000
        NUMBER_OF_FRAMES: 67819
        NUMBER_OF_BYTES : 34938755
        _STATISTICS_WRITING_APP: mkvpropedit v94.0 ('Initiate') 64-bit
        _STATISTICS_WRITING_DATE_UTC: 2026-04-09 11:30:14
        encoder         : Lavc61.19.100 pcm_s16le
frame=  125 fps=0.0 q=-0.0 size=N/A time=00:00:05.21 bitrate=N/A speed=10.3x    frame=  309 fps=303 q=-0.0 size=N/A time=00:00:12.88 bitrate=N/A speed=12.6x    frame=  498 fps=322 q=-0.0 size=N/A time=00:00:20.77 bitrate=N/A speed=13.4x    frame=  690 fps=335 q=-0.0 size=N/A time=00:00:28.77 bitrate=N/A speed=  14x    frame=  875 fps=341 q=-0.0 size=N/A time=00:00:36.49 bitrate=N/A speed=14.2x    frame= 1014 fps=328 q=-0.0 size=N/A time=00:00:42.29 bitrate=N/A speed=13.7x    frame= 1166 fps=323 q=-0.0 size=N/A time=00:00:48.63 bitrate=N/A speed=13.5x    frame= 1310 fps=319 q=-0.0 size=N/A time=00:00:54.63 bitrate=N/A speed=13.3x    frame= 1468 fps=316 q=-0.0 size=N/A time=00:01:01.22 bitrate=N/A speed=13.2x    frame= 1608 fps=312 q=-0.0 size=N/A time=00:01:07.06 bitrate=N/A speed=  13x    frame= 1745 fps=308 q=-0.0 size=N/A time=00:01:12.78 bitrate=N/A speed=12.8x    frame= 1900 fps=308 q=-0.0 size=N/A time=00:01:19.24 bitrate=N/A speed=12.8x    frame= 2052 fps=306 q=-0.0 size=N/A time=00:01:25.58 bitrate=N/A speed=12.8x    frame= 2166 fps=300 q=-0.0 size=N/A time=00:01:30.34 bitrate=N/A speed=12.5x    frame= 2320 fps=300 q=-0.0 size=N/A time=00:01:36.76 bitrate=N/A speed=12.5x    frame= 2450 fps=297 q=-0.0 size=N/A time=00:01:42.18 bitrate=N/A speed=12.4x    frame= 2577 fps=294 q=-0.0 size=N/A time=00:01:47.48 bitrate=N/A speed=12.3x    frame= 2742 fps=296 q=-0.0 size=N/A time=00:01:54.36 bitrate=N/A speed=12.3x    frame= 2911 fps=297 q=-0.0 size=N/A time=00:02:01.41 bitrate=N/A speed=12.4x    frame= 3102 fps=301 q=-0.0 size=N/A time=00:02:09.37 bitrate=N/A speed=12.5x    frame= 3287 fps=304 q=-0.0 size=N/A time=00:02:17.09 bitrate=N/A speed=12.7x    frame= 3478 fps=307 q=-0.0 size=N/A time=00:02:25.06 bitrate=N/A speed=12.8x    frame= 3671 fps=310 q=-0.0 size=N/A time=00:02:33.11 bitrate=N/A speed=12.9x    frame= 3866 fps=312 q=-0.0 size=N/A time=00:02:41.24 bitrate=N/A speed=  13x    frame= 4053 fps=314 q=-0.0 size=N/A time=00:02:49.04 bitrate=N/A speed=13.1x    frame= 4239 fps=316 q=-0.0 size=N/A time=00:02:56.80 bitrate=N/A speed=13.2x    frame= 4432 fps=319 q=-0.0 size=N/A time=00:03:04.85 bitrate=N/A speed=13.3x    frame= 4629 fps=321 q=-0.0 size=N/A time=00:03:13.06 bitrate=N/A speed=13.4x    frame= 4835 fps=323 q=-0.0 size=N/A time=00:03:21.65 bitrate=N/A speed=13.5x    frame= 5025 fps=325 q=-0.0 size=N/A time=00:03:29.58 bitrate=N/A speed=13.5x    frame= 5208 fps=326 q=-0.0 size=N/A time=00:03:37.21 bitrate=N/A speed=13.6x    frame= 5400 fps=327 q=-0.0 size=N/A time=00:03:45.22 bitrate=N/A speed=13.6x    frame= 5597 fps=329 q=-0.0 size=N/A time=00:03:53.44 bitrate=N/A speed=13.7x    frame= 5786 fps=330 q=-0.0 size=N/A time=00:04:01.32 bitrate=N/A speed=13.8x    frame= 5976 fps=331 q=-0.0 size=N/A time=00:04:09.24 bitrate=N/A speed=13.8x    frame= 6178 fps=333 q=-0.0 size=N/A time=00:04:17.67 bitrate=N/A speed=13.9x    frame= 6370 fps=334 q=-0.0 size=N/A time=00:04:25.68 bitrate=N/A speed=13.9x    frame= 6556 fps=334 q=-0.0 size=N/A time=00:04:33.43 bitrate=N/A speed=13.9x    frame= 6749 fps=336 q=-0.0 size=N/A time=00:04:41.48 bitrate=N/A speed=  14x    frame= 6947 fps=337 q=-0.0 size=N/A time=00:04:49.74 bitrate=N/A speed=  14x    frame= 7135 fps=337 q=-0.0 size=N/A time=00:04:57.58 bitrate=N/A speed=14.1x    frame= 7323 fps=338 q=-0.0 size=N/A time=00:05:05.43 bitrate=N/A speed=14.1x    frame= 7512 fps=339 q=-0.0 size=N/A time=00:05:13.31 bitrate=N/A speed=14.1x    frame= 7693 fps=339 q=-0.0 size=N/A time=00:05:20.86 bitrate=N/A speed=14.1x    frame= 7879 fps=339 q=-0.0 size=N/A time=00:05:28.61 bitrate=N/A speed=14.2x    frame= 8061 fps=340 q=-0.0 size=N/A time=00:05:36.21 bitrate=N/A speed=14.2x    frame= 8255 fps=341 q=-0.0 size=N/A time=00:05:44.30 bitrate=N/A speed=14.2x    frame= 8449 fps=341 q=-0.0 size=N/A time=00:05:52.39 bitrate=N/A speed=14.2x    frame= 8641 fps=342 q=-0.0 size=N/A time=00:06:00.40 bitrate=N/A speed=14.3x    frame= 8818 fps=342 q=-0.0 size=N/A time=00:06:07.78 bitrate=N/A speed=14.3x    frame= 9019 fps=343 q=-0.0 size=N/A time=00:06:16.16 bitrate=N/A speed=14.3x    frame= 9212 fps=343 q=-0.0 size=N/A time=00:06:24.21 bitrate=N/A speed=14.3x    frame= 9399 fps=344 q=-0.0 size=N/A time=00:06:32.01 bitrate=N/A speed=14.3x    frame= 9588 fps=344 q=-0.0 size=N/A time=00:06:39.89 bitrate=N/A speed=14.4x    frame= 9785 fps=345 q=-0.0 size=N/A time=00:06:48.11 bitrate=N/A speed=14.4x    frame= 9971 fps=345 q=-0.0 size=N/A time=00:06:55.87 bitrate=N/A speed=14.4x    frame=10162 fps=346 q=-0.0 size=N/A time=00:07:03.84 bitrate=N/A speed=14.4x    frame=10355 fps=346 q=-0.0 size=N/A time=00:07:11.88 bitrate=N/A speed=14.4x    frame=10539 fps=346 q=-0.0 size=N/A time=00:07:19.56 bitrate=N/A speed=14.4x    frame=10730 fps=347 q=-0.0 size=N/A time=00:07:27.53 bitrate=N/A speed=14.5x    frame=10917 fps=347 q=-0.0 size=N/A time=00:07:35.32 bitrate=N/A speed=14.5x    frame=11114 fps=347 q=-0.0 size=N/A time=00:07:43.54 bitrate=N/A speed=14.5x    frame=11289 fps=347 q=-0.0 size=N/A time=00:07:50.84 bitrate=N/A speed=14.5x    frame=11477 fps=348 q=-0.0 size=N/A time=00:07:58.68 bitrate=N/A speed=14.5x    frame=11664 fps=348 q=-0.0 size=N/A time=00:08:06.48 bitrate=N/A speed=14.5x    frame=11853 fps=348 q=-0.0 size=N/A time=00:08:14.36 bitrate=N/A speed=14.5x    frame=12043 fps=348 q=-0.0 size=N/A time=00:08:22.29 bitrate=N/A speed=14.5x    frame=12234 fps=349 q=-0.0 size=N/A time=00:08:30.25 bitrate=N/A speed=14.5x    frame=12425 fps=349 q=-0.0 size=N/A time=00:08:38.22 bitrate=N/A speed=14.6x    frame=12625 fps=349 q=-0.0 size=N/A time=00:08:46.56 bitrate=N/A speed=14.6x    frame=12820 fps=350 q=-0.0 size=N/A time=00:08:54.70 bitrate=N/A speed=14.6x    frame=13008 fps=350 q=-0.0 size=N/A time=00:09:02.54 bitrate=N/A speed=14.6x    frame=13199 fps=350 q=-0.0 size=N/A time=00:09:10.50 bitrate=N/A speed=14.6x    frame=13388 fps=351 q=-0.0 size=N/A time=00:09:18.39 bitrate=N/A speed=14.6x    frame=13576 fps=351 q=-0.0 size=N/A time=00:09:26.23 bitrate=N/A speed=14.6x    frame=13758 fps=351 q=-0.0 size=N/A time=00:09:33.82 bitrate=N/A speed=14.6x    frame=13949 fps=351 q=-0.0 size=N/A time=00:09:41.78 bitrate=N/A speed=14.6x    frame=14132 fps=351 q=-0.0 size=N/A time=00:09:49.42 bitrate=N/A speed=14.6x    frame=14321 fps=351 q=-0.0 size=N/A time=00:09:57.30 bitrate=N/A speed=14.7x    frame=14514 fps=352 q=-0.0 size=N/A time=00:10:05.35 bitrate=N/A speed=14.7x    frame=14694 fps=352 q=-0.0 size=N/A time=00:10:12.86 bitrate=N/A speed=14.7x    frame=14886 fps=352 q=-0.0 size=N/A time=00:10:20.87 bitrate=N/A speed=14.7x    frame=15070 fps=352 q=-0.0 size=N/A time=00:10:28.54 bitrate=N/A speed=14.7x    frame=15230 fps=351 q=-0.0 size=N/A time=00:10:35.21 bitrate=N/A speed=14.7x    frame=15419 fps=352 q=-0.0 size=N/A time=00:10:43.10 bitrate=N/A speed=14.7x    frame=15614 fps=352 q=-0.0 size=N/A time=00:10:51.23 bitrate=N/A speed=14.7x    frame=15806 fps=352 q=-0.0 size=N/A time=00:10:59.24 bitrate=N/A speed=14.7x    frame=16001 fps=352 q=-0.0 size=N/A time=00:11:07.37 bitrate=N/A speed=14.7x    frame=16196 fps=353 q=-0.0 size=N/A time=00:11:15.50 bitrate=N/A speed=14.7x    frame=16384 fps=353 q=-0.0 size=N/A time=00:11:23.34 bitrate=N/A speed=14.7x    frame=16574 fps=353 q=-0.0 size=N/A time=00:11:31.27 bitrate=N/A speed=14.7x    frame=16767 fps=353 q=-0.0 size=N/A time=00:11:39.32 bitrate=N/A speed=14.7x    frame=16959 fps=354 q=-0.0 size=N/A time=00:11:47.33 bitrate=N/A speed=14.7x    frame=17157 fps=354 q=-0.0 size=N/A time=00:11:55.58 bitrate=N/A speed=14.8x    frame=17345 fps=354 q=-0.0 size=N/A time=00:12:03.43 bitrate=N/A speed=14.8x    frame=17534 fps=354 q=-0.0 size=N/A time=00:12:11.31 bitrate=N/A speed=14.8x    frame=17718 fps=354 q=-0.0 size=N/A time=00:12:18.98 bitrate=N/A speed=14.8x    frame=17903 fps=354 q=-0.0 size=N/A time=00:12:26.70 bitrate=N/A speed=14.8x    frame=18090 fps=354 q=-0.0 size=N/A time=00:12:34.50 bitrate=N/A speed=14.8x    frame=18269 fps=354 q=-0.0 size=N/A time=00:12:41.96 bitrate=N/A speed=14.8x    frame=18453 fps=354 q=-0.0 size=N/A time=00:12:49.64 bitrate=N/A speed=14.8x    frame=18646 fps=354 q=-0.0 size=N/A time=00:12:57.69 bitrate=N/A speed=14.8x    frame=18841 fps=355 q=-0.0 size=N/A time=00:13:05.82 bitrate=N/A speed=14.8x    frame=19027 fps=355 q=-0.0 size=N/A time=00:13:13.58 bitrate=N/A speed=14.8x    frame=19222 fps=355 q=-0.0 size=N/A time=00:13:21.71 bitrate=N/A speed=14.8x    frame=19418 fps=355 q=-0.0 size=N/A time=00:13:29.89 bitrate=N/A speed=14.8x    frame=19607 fps=355 q=-0.0 size=N/A time=00:13:37.77 bitrate=N/A speed=14.8x    frame=19794 fps=355 q=-0.0 size=N/A time=00:13:45.57 bitrate=N/A speed=14.8x    frame=19988 fps=356 q=-0.0 size=N/A time=00:13:53.66 bitrate=N/A speed=14.8x    frame=20182 fps=356 q=-0.0 size=N/A time=00:14:01.75 bitrate=N/A speed=14.8x    frame=20370 fps=356 q=-0.0 size=N/A time=00:14:09.59 bitrate=N/A speed=14.8x    frame=20550 fps=356 q=-0.0 size=N/A time=00:14:17.10 bitrate=N/A speed=14.8x    frame=20734 fps=356 q=-0.0 size=N/A time=00:14:24.78 bitrate=N/A speed=14.8x    frame=20928 fps=356 q=-0.0 size=N/A time=00:14:32.87 bitrate=N/A speed=14.8x    frame=21124 fps=356 q=-0.0 size=N/A time=00:14:41.04 bitrate=N/A speed=14.9x    frame=21308 fps=356 q=-0.0 size=N/A time=00:14:48.72 bitrate=N/A speed=14.9x    frame=21509 fps=356 q=-0.0 size=N/A time=00:14:57.10 bitrate=N/A speed=14.9x    frame=21703 fps=356 q=-0.0 size=N/A time=00:15:05.19 bitrate=N/A speed=14.9x    frame=21898 fps=357 q=-0.0 size=N/A time=00:15:13.32 bitrate=N/A speed=14.9x    frame=22089 fps=357 q=-0.0 size=N/A time=00:15:21.29 bitrate=N/A speed=14.9x    frame=22286 fps=357 q=-0.0 size=N/A time=00:15:29.51 bitrate=N/A speed=14.9x    frame=22477 fps=357 q=-0.0 size=N/A time=00:15:37.47 bitrate=N/A speed=14.9x    frame=22669 fps=357 q=-0.0 size=N/A time=00:15:45.48 bitrate=N/A speed=14.9x    frame=22850 fps=357 q=-0.0 size=N/A time=00:15:53.03 bitrate=N/A speed=14.9x    frame=23040 fps=357 q=-0.0 size=N/A time=00:16:00.96 bitrate=N/A speed=14.9x    frame=23235 fps=357 q=-0.0 size=N/A time=00:16:09.09 bitrate=N/A speed=14.9x    frame=23417 fps=357 q=-0.0 size=N/A time=00:16:16.68 bitrate=N/A speed=14.9x    frame=23606 fps=357 q=-0.0 size=N/A time=00:16:24.56 bitrate=N/A speed=14.9x    frame=23807 fps=358 q=-0.0 size=N/A time=00:16:32.95 bitrate=N/A speed=14.9x    frame=24006 fps=358 q=-0.0 size=N/A time=00:16:41.25 bitrate=N/A speed=14.9x    frame=24190 fps=358 q=-0.0 size=N/A time=00:16:48.92 bitrate=N/A speed=14.9x    frame=24382 fps=358 q=-0.0 size=N/A time=00:16:56.93 bitrate=N/A speed=14.9x    frame=24571 fps=358 q=-0.0 size=N/A time=00:17:04.81 bitrate=N/A speed=14.9x    frame=24764 fps=358 q=-0.0 size=N/A time=00:17:12.86 bitrate=N/A speed=14.9x    frame=24956 fps=358 q=-0.0 size=N/A time=00:17:20.87 bitrate=N/A speed=14.9x    frame=25143 fps=358 q=-0.0 size=N/A time=00:17:28.67 bitrate=N/A speed=14.9x    frame=25337 fps=358 q=-0.0 size=N/A time=00:17:36.76 bitrate=N/A speed=  15x    frame=25528 fps=359 q=-0.0 size=N/A time=00:17:44.73 bitrate=N/A speed=  15x    frame=25722 fps=359 q=-0.0 size=N/A time=00:17:52.82 bitrate=N/A speed=  15x    frame=25912 fps=359 q=-0.0 size=N/A time=00:18:00.74 bitrate=N/A speed=  15x    frame=26106 fps=359 q=-0.0 size=N/A time=00:18:08.83 bitrate=N/A speed=  15x    frame=26307 fps=359 q=-0.0 size=N/A time=00:18:17.22 bitrate=N/A speed=  15x    frame=26493 fps=359 q=-0.0 size=N/A time=00:18:24.97 bitrate=N/A speed=  15x    frame=26691 fps=359 q=-0.0 size=N/A time=00:18:33.23 bitrate=N/A speed=  15x    frame=26876 fps=359 q=-0.0 size=N/A time=00:18:40.95 bitrate=N/A speed=  15x    frame=27052 fps=359 q=-0.0 size=N/A time=00:18:48.29 bitrate=N/A speed=  15x    frame=27235 fps=359 q=-0.0 size=N/A time=00:18:55.92 bitrate=N/A speed=  15x    frame=27415 fps=359 q=-0.0 size=N/A time=00:19:03.43 bitrate=N/A speed=  15x    frame=27603 fps=359 q=-0.0 size=N/A time=00:19:11.27 bitrate=N/A speed=  15x    frame=27790 fps=359 q=-0.0 size=N/A time=00:19:19.07 bitrate=N/A speed=  15x    frame=27977 fps=359 q=-0.0 size=N/A time=00:19:26.87 bitrate=N/A speed=  15x    frame=28164 fps=359 q=-0.0 size=N/A time=00:19:34.67 bitrate=N/A speed=  15x    frame=28358 fps=359 q=-0.0 size=N/A time=00:19:42.76 bitrate=N/A speed=  15x    frame=28547 fps=359 q=-0.0 size=N/A time=00:19:50.64 bitrate=N/A speed=  15x    frame=28730 fps=359 q=-0.0 size=N/A time=00:19:58.28 bitrate=N/A speed=  15x    frame=28902 fps=359 q=-0.0 size=N/A time=00:20:05.45 bitrate=N/A speed=  15x    frame=29070 fps=359 q=-0.0 size=N/A time=00:20:12.46 bitrate=N/A speed=  15x    frame=29249 fps=359 q=-0.0 size=N/A time=00:20:19.92 bitrate=N/A speed=  15x    frame=29437 fps=359 q=-0.0 size=N/A time=00:20:27.76 bitrate=N/A speed=  15x    frame=29607 fps=359 q=-0.0 size=N/A time=00:20:34.85 bitrate=N/A speed=  15x    frame=29778 fps=359 q=-0.0 size=N/A time=00:20:41.99 bitrate=N/A speed=  15x    frame=29945 fps=358 q=-0.0 size=N/A time=00:20:48.95 bitrate=N/A speed=14.9x    frame=30120 fps=358 q=-0.0 size=N/A time=00:20:56.25 bitrate=N/A speed=14.9x    frame=30308 fps=358 q=-0.0 size=N/A time=00:21:04.09 bitrate=N/A speed=14.9x    frame=30492 fps=358 q=-0.0 size=N/A time=00:21:11.77 bitrate=N/A speed=14.9x    frame=30675 fps=358 q=-0.0 size=N/A time=00:21:19.40 bitrate=N/A speed=14.9x    frame=30875 fps=358 q=-0.0 size=N/A time=00:21:27.74 bitrate=N/A speed=14.9x    frame=31061 fps=358 q=-0.0 size=N/A time=00:21:35.50 bitrate=N/A speed=14.9x    frame=31244 fps=358 q=-0.0 size=N/A time=00:21:43.13 bitrate=N/A speed=14.9x    frame=31434 fps=358 q=-0.0 size=N/A time=00:21:51.05 bitrate=N/A speed=14.9x    frame=31629 fps=358 q=-0.0 size=N/A time=00:21:59.19 bitrate=N/A speed=  15x    frame=31807 fps=358 q=-0.0 size=N/A time=00:22:06.61 bitrate=N/A speed=14.9x    frame=31987 fps=358 q=-0.0 size=N/A time=00:22:14.12 bitrate=N/A speed=14.9x    frame=32176 fps=358 q=-0.0 size=N/A time=00:22:22.00 bitrate=N/A speed=14.9x    frame=32372 fps=358 q=-0.0 size=N/A time=00:22:30.18 bitrate=N/A speed=  15x    frame=32556 fps=358 q=-0.0 size=N/A time=00:22:37.85 bitrate=N/A speed=  15x    frame=32711 fps=358 q=-0.0 size=N/A time=00:22:44.32 bitrate=N/A speed=14.9x    frame=32857 fps=358 q=-0.0 size=N/A time=00:22:50.41 bitrate=N/A speed=14.9x    frame=33043 fps=358 q=-0.0 size=N/A time=00:22:58.16 bitrate=N/A speed=14.9x    frame=33229 fps=358 q=-0.0 size=N/A time=00:23:05.92 bitrate=N/A speed=14.9x    frame=33400 fps=358 q=-0.0 size=N/A time=00:23:13.05 bitrate=N/A speed=14.9x    frame=33559 fps=357 q=-0.0 size=N/A time=00:23:19.68 bitrate=N/A speed=14.9x    frame=33708 fps=357 q=-0.0 size=N/A time=00:23:25.90 bitrate=N/A speed=14.9x    frame=33834 fps=356 q=-0.0 size=N/A time=00:23:31.15 bitrate=N/A speed=14.9x    frame=33978 fps=356 q=-0.0 size=N/A time=00:23:37.16 bitrate=N/A speed=14.8x    frame=34136 fps=356 q=-0.0 size=N/A time=00:23:43.75 bitrate=N/A speed=14.8x    frame=34296 fps=355 q=-0.0 size=N/A time=00:23:50.42 bitrate=N/A speed=14.8x    frame=34423 fps=355 q=-0.0 size=N/A time=00:23:55.72 bitrate=N/A speed=14.8x    frame=34591 fps=355 q=-0.0 size=N/A time=00:24:02.73 bitrate=N/A speed=14.8x    [Parsed_psnr_16 @ 000001bc75fcd7c0] PSNR y:48.910835 u:50.366163 v:50.414104 average:49.350209 min:37.902258 max:inf
[out#0/null @ 000001bc6f1ddec0] video:14903KiB audio:271276KiB subtitle:0KiB other streams:0KiB global headers:0KiB muxing overhead: unknown
frame=34683 fps=355 q=-0.0 Lsize=N/A time=00:24:06.57 bitrate=N/A speed=14.8x    
